<?xml version="1.0" standalone="no"?><!DOCTYPE svg PUBLIC "-//W3C//DTD SVG 1.1//EN" "http://www.w3.org/Graphics/SVG/1.1/DTD/svg11.dtd"><svg t="1679730323180" class="icon" viewBox="0 0 1024 1024" version="1.1" xmlns="http://www.w3.org/2000/svg" p-id="13501" xmlns:xlink="http://www.w3.org/1999/xlink" width="32" height="32"><path d="M909 897H115a50 50 0 0 1-50-50V177a50 50 0 0 1 50-50h370a50 50 0 0 1 50 50v62a10 10 0 0 0 10 10h241a50 50 0 0 1 50 50v58h73a50 50 0 0 1 50 50v440a50 50 0 0 1-50 50zM505 309a30 30 0 0 1-30-30v-72a20 20 0 0 0-20-20H145a20 20 0 0 0-20 20v610c0 11.046 9.377 20 20.422 20H209a20 20 0 0 0 20-20V407a50 50 0 0 1 50-50h497v-28a20 20 0 0 0-20-20H535m364 128a20 20 0 0 0-20-20H309a20 20 0 0 0-20 20v400h590a20 20 0 0 0 20-20V437zM650.659 615.8l-26.618-26.53V737a30 30 0 0 1-30 30h-0.113a30 30 0 0 1-30-30V589.275L537.309 615.8a30.006 30.006 0 0 1-42.509-42.36l77.928-77.669a30.127 30.127 0 0 1 42.506 0l77.929 77.669a30.007 30.007 0 0 1-42.504 42.36z" fill="#0091d5" p-id="13502"></path></svg>
